
			<svg xmlns="http://www.w3.org/2000/svg" width="930" height="1050" viewBox="0 0 930 1050">
				<g fill="none" fill-rule="evenodd">
					
					<rect id="c0-low-contrast-white" width="140" height="140" x="0" y="0" fill="
                        BG Color
                        #ad8c73
                    " />
					<rect id="white" width="80" height="80" x="30" y="30" fill="#FFFFFF" />

					<rect id="c0-high-contrast-white" width="140" height="140" x="150" y="0"  fill="
                        BG Color
                        #8d6f56
                    " />
					<rect id="white" width="80" height="80" x="180" y="30" fill="#FFFFFF" />

					<rect id="c0" width="140" height="140" x="320" y="0" fill="#fcd8bc" />
					<rect id="gray0-low-contrast" width="80" height="80" x="350" y="30" fill="
                        Text Color
                        #7e7e7e
                    " />

					<rect id="c0" width="140" height="140" x="470" y="0" fill="#fcd8bc" />
					<rect id="gray0-high-contrast" width="80" height="80" x="500" y="30" fill="
                        Text Color
                        #636363
                    " />

					<rect id="c0" width="140" height="140" x="640" y="0" fill="#fcd8bc" />
					<rect id="var0-low-contrast" width="80" height="80" x="670" y="30" fill="
                        Text Color
                        #97785f
                    " />

					<rect id="c0" width="140" height="140" x="790" y="0" fill="#fcd8bc" />
					<rect id="var0-high-contrast" width="80" height="80" x="820" y="30" fill="
                        Text Color
                        #7a5d45
                    " />
						,
					<rect id="c1-low-contrast-white" width="140" height="140" x="0" y="200" fill="
                        BG Color
                        #c98500
                    " />
					<rect id="white" width="80" height="80" x="30" y="230" fill="#FFFFFF" />

					<rect id="c1-high-contrast-white" width="140" height="140" x="150" y="200"  fill="
                        BG Color
                        #a66800
                    " />
					<rect id="white" width="80" height="80" x="180" y="230" fill="#FFFFFF" />

					<rect id="c1" width="140" height="140" x="320" y="200" fill="#fbb03b" />
					<rect id="gray1-low-contrast" width="80" height="80" x="350" y="230" fill="
                        Text Color
                        #686868
                    " />

					<rect id="c1" width="140" height="140" x="470" y="200" fill="#fbb03b" />
					<rect id="gray1-high-contrast" width="80" height="80" x="500" y="230" fill="
                        Text Color
                        #4e4e4e
                    " />

					<rect id="c1" width="140" height="140" x="640" y="200" fill="#fbb03b" />
					<rect id="var1-low-contrast" width="80" height="80" x="670" y="230" fill="
                        Text Color
                        #965b00
                    " />

					<rect id="c1" width="140" height="140" x="790" y="200" fill="#fbb03b" />
					<rect id="var1-high-contrast" width="80" height="80" x="820" y="230" fill="
                        Text Color
                        #743f00
                    " />
						,
					<rect id="c2-low-contrast-white" width="140" height="140" x="0" y="400" fill="
                        BG Color
                        #FF552B
                    " />
					<rect id="white" width="80" height="80" x="30" y="430" fill="#FFFFFF" />

					<rect id="c2-high-contrast-white" width="140" height="140" x="150" y="400"  fill="
                        BG Color
                        #db340e
                    " />
					<rect id="white" width="80" height="80" x="180" y="430" fill="#FFFFFF" />

					<rect id="c2" width="140" height="140" x="320" y="400" fill="#ff552b" />
					<rect id="gray2-low-contrast" width="80" height="80" x="350" y="430" fill="
                        Text Color
                        #454545
                    " />

					<rect id="c2" width="140" height="140" x="470" y="400" fill="#ff552b" />
					<rect id="gray2-high-contrast" width="80" height="80" x="500" y="430" fill="
                        Text Color
                        #292929
                    " />

					<rect id="c2" width="140" height="140" x="640" y="400" fill="#ff552b" />
					<rect id="var2-low-contrast" width="80" height="80" x="670" y="430" fill="
                        Text Color
                        #8e0000
                    " />

					<rect id="c2" width="140" height="140" x="790" y="400" fill="#ff552b" />
					<rect id="var2-high-contrast" width="80" height="80" x="820" y="430" fill="
                        Text Color
                        #5b0000
                    " />
						,
					<rect id="c3-low-contrast-white" width="140" height="140" x="0" y="600" fill="
                        BG Color
                        #A62317
                    " />
					<rect id="white" width="80" height="80" x="30" y="630" fill="#FFFFFF" />

					<rect id="c3-high-contrast-white" width="140" height="140" x="150" y="600"  fill="
                        BG Color
                        #A62317
                    " />
					<rect id="white" width="80" height="80" x="180" y="630" fill="#FFFFFF" />

					<rect id="c3" width="140" height="140" x="320" y="600" fill="#a62317" />
					<rect id="gray3-low-contrast" width="80" height="80" x="350" y="630" fill="
                        Text Color
                        #a6a6a6
                    " />

					<rect id="c3" width="140" height="140" x="470" y="600" fill="#a62317" />
					<rect id="gray3-high-contrast" width="80" height="80" x="500" y="630" fill="
                        Text Color
                        #cbcbcb
                    " />

					<rect id="c3" width="140" height="140" x="640" y="600" fill="#a62317" />
					<rect id="var3-low-contrast" width="80" height="80" x="670" y="630" fill="
                        Text Color
                        #ff8267
                    " />

					<rect id="c3" width="140" height="140" x="790" y="600" fill="#a62317" />
					<rect id="var3-high-contrast" width="80" height="80" x="820" y="630" fill="
                        Text Color
                        #ffbd9f
                    " />
						,
					<rect id="c4-low-contrast-white" width="140" height="140" x="0" y="800" fill="
                        BG Color
                        #44140A
                    " />
					<rect id="white" width="80" height="80" x="30" y="830" fill="#FFFFFF" />

					<rect id="c4-high-contrast-white" width="140" height="140" x="150" y="800"  fill="
                        BG Color
                        #44140A
                    " />
					<rect id="white" width="80" height="80" x="180" y="830" fill="#FFFFFF" />

					<rect id="c4" width="140" height="140" x="320" y="800" fill="#44140a" />
					<rect id="gray4-low-contrast" width="80" height="80" x="350" y="830" fill="
                        Text Color
                        #6e6e6e
                    " />

					<rect id="c4" width="140" height="140" x="470" y="800" fill="#44140a" />
					<rect id="gray4-high-contrast" width="80" height="80" x="500" y="830" fill="
                        Text Color
                        #8c8c8c
                    " />

					<rect id="c4" width="140" height="140" x="640" y="800" fill="#44140a" />
					<rect id="var4-low-contrast" width="80" height="80" x="670" y="830" fill="
                        Text Color
                        #9a5f52
                    " />

					<rect id="c4" width="140" height="140" x="790" y="800" fill="#44140a" />
					<rect id="var4-high-contrast" width="80" height="80" x="820" y="830" fill="
                        Text Color
                        #bb7c6f
                    " />
						
				</g>
			</svg>